<svg width="18" height="18" viewBox="0 0 18 18" fill="none" xmlns="http://www.w3.org/2000/svg">
<path d="M5.13756 0.59082H12.1739C14.8544 0.59082 17.0324 2.76874 17.0324 5.44926V12.4856C17.0324 13.7742 16.5205 15.0099 15.6094 15.9211C14.6982 16.8322 13.4625 17.3441 12.1739 17.3441H5.13756C2.45704 17.3441 0.279114 15.1662 0.279114 12.4856V5.44926C0.279114 4.16072 0.790984 2.92496 1.70212 2.01383C2.61325 1.10269 3.84902 0.59082 5.13756 0.59082ZM4.97002 2.26615C4.17024 2.26615 3.40322 2.58386 2.83768 3.14939C2.27215 3.71492 1.95444 4.48195 1.95444 5.28173V12.6532C1.95444 14.3201 3.30308 15.6687 4.97002 15.6687H12.3415C13.1412 15.6687 13.9083 15.351 14.4738 14.7855C15.0393 14.22 15.357 13.4529 15.357 12.6532V5.28173C15.357 3.61478 14.0084 2.26615 12.3415 2.26615H4.97002ZM13.0535 3.52264C13.3312 3.52264 13.5975 3.63296 13.7939 3.82932C13.9902 4.02569 14.1005 4.29202 14.1005 4.56972C14.1005 4.84742 13.9902 5.11375 13.7939 5.31011C13.5975 5.50648 13.3312 5.6168 13.0535 5.6168C12.7758 5.6168 12.5094 5.50648 12.3131 5.31011C12.1167 5.11375 12.0064 4.84742 12.0064 4.56972C12.0064 4.29202 12.1167 4.02569 12.3131 3.82932C12.5094 3.63296 12.7758 3.52264 13.0535 3.52264ZM8.65574 4.77913C9.76655 4.77913 10.8319 5.2204 11.6173 6.00586C12.4028 6.79132 12.8441 7.85664 12.8441 8.96745C12.8441 10.0783 12.4028 11.1436 11.6173 11.929C10.8319 12.7145 9.76655 13.1558 8.65574 13.1558C7.54493 13.1558 6.47962 12.7145 5.69416 11.929C4.90869 11.1436 4.46743 10.0783 4.46743 8.96745C4.46743 7.85664 4.90869 6.79132 5.69416 6.00586C6.47962 5.2204 7.54493 4.77913 8.65574 4.77913ZM8.65574 6.45446C7.98925 6.45446 7.35007 6.71922 6.87879 7.1905C6.40751 7.66177 6.14275 8.30096 6.14275 8.96745C6.14275 9.63393 6.40751 10.2731 6.87879 10.7444C7.35007 11.2157 7.98925 11.4804 8.65574 11.4804C9.32223 11.4804 9.96141 11.2157 10.4327 10.7444C10.904 10.2731 11.1687 9.63393 11.1687 8.96745C11.1687 8.30096 10.904 7.66177 10.4327 7.1905C9.96141 6.71922 9.32223 6.45446 8.65574 6.45446Z" fill="black"/>
</svg>
