<svg width="18" height="15" viewBox="0 0 18 15" fill="none" xmlns="http://www.w3.org/2000/svg">
<path d="M12.6154 1.943C11.9787 1.9429 11.3675 2.19273 10.9131 2.63874C10.4588 3.08475 10.1978 3.69129 10.1861 4.32783L10.1627 5.64715C10.1613 5.71798 10.145 5.78773 10.1147 5.85181C10.0845 5.91589 10.0411 5.97286 9.9873 6.01897C9.93352 6.06508 9.87059 6.09931 9.80264 6.11939C9.7347 6.13947 9.66328 6.14497 9.59306 6.13551L8.28547 5.95792C6.56491 5.72338 4.91639 4.93095 3.33489 3.6133C2.83396 6.38597 3.81235 8.30673 6.1687 9.78855L7.6321 10.7083C7.70163 10.752 7.75939 10.8121 7.80034 10.8833C7.84128 10.9544 7.86416 11.0346 7.86697 11.1167C7.86978 11.1987 7.85244 11.2802 7.81646 11.3541C7.78048 11.4279 7.72696 11.4918 7.66058 11.5401L6.32702 12.5143C7.12028 12.5637 7.87334 12.5285 8.49824 12.4046C12.4503 11.6155 15.0781 8.64179 15.0781 3.73644C15.0781 3.33604 14.2304 1.943 12.6154 1.943ZM8.5108 4.29684C8.52542 3.48937 8.77792 2.70416 9.23669 2.03952C9.69545 1.37488 10.3401 0.860342 11.0899 0.560331C11.8397 0.26032 12.6613 0.188168 13.452 0.352909C14.2426 0.51765 14.967 0.911963 15.5346 1.48648C16.1302 1.48229 16.637 1.63307 17.7703 0.946186C17.4897 2.31995 17.3515 2.91637 16.7534 3.73644C16.7534 10.1379 12.8189 13.2506 8.8266 14.0472C6.08912 14.5934 2.10855 13.6962 0.967651 12.5051C1.54899 12.4599 3.9112 12.206 5.27659 11.2067C4.12145 10.4453 -0.476479 7.73963 2.54497 0.465368C3.96313 2.12143 5.4014 3.24892 6.85893 3.84701C7.82895 4.2449 8.06684 4.23652 8.51164 4.29767L8.5108 4.29684Z" fill="black"/>
</svg>
