<svg width="18" height="14" viewBox="0 0 18 14" fill="none" xmlns="http://www.w3.org/2000/svg">
<path d="M9.03251 0.266602C9.74871 0.266602 10.4833 0.28503 11.1954 0.315186L12.0364 0.355394L12.8414 0.403141L13.5953 0.454238L14.2838 0.507848C15.0311 0.565042 15.7342 0.883914 16.2695 1.40837C16.8048 1.93282 17.1381 2.62926 17.2106 3.37517L17.2441 3.73117L17.3069 4.49345C17.3656 5.28336 17.4091 6.14448 17.4091 6.9679C17.4091 7.79132 17.3656 8.65244 17.3069 9.44236L17.2441 10.2046C17.2332 10.3269 17.2223 10.445 17.2106 10.5606C17.1381 11.3067 16.8047 12.0032 16.2692 12.5277C15.7337 13.0522 15.0304 13.371 14.283 13.428L13.5961 13.4807L12.8422 13.5327L12.0364 13.5804L11.1954 13.6206C10.4748 13.6519 9.75372 13.6681 9.03251 13.6692C8.3113 13.6681 7.59019 13.6519 6.86967 13.6206L6.02865 13.5804L5.22366 13.5327L4.46976 13.4807L3.7812 13.428C3.03397 13.3708 2.33083 13.0519 1.7955 12.5274C1.26017 12.003 0.92693 11.3065 0.85441 10.5606L0.820903 10.2046L0.758079 9.44236C0.694029 8.61905 0.659941 7.79369 0.655884 6.9679C0.655884 6.14448 0.699442 5.28336 0.758079 4.49345L0.820903 3.73117C0.831793 3.60888 0.842683 3.49076 0.85441 3.37517C0.926902 2.62939 1.26002 1.93306 1.79518 1.40862C2.33034 0.884186 3.03328 0.56523 3.78037 0.507848L4.46809 0.454238L5.22198 0.403141L6.02781 0.355394L6.86883 0.315186C7.58964 0.283885 8.31102 0.267687 9.03251 0.266602ZM9.03251 1.94193C8.34144 1.94193 7.63026 1.96036 6.93835 1.98884L6.11912 2.02821L5.33255 2.07428L4.59374 2.12454L3.9169 2.17731C3.56117 2.20255 3.22587 2.35292 2.97042 2.60178C2.71498 2.85063 2.55589 3.18189 2.52136 3.53684C2.42335 4.54957 2.33121 5.81025 2.33121 6.9679C2.33121 8.12555 2.42335 9.38623 2.52136 10.399C2.59256 11.1294 3.17222 11.6973 3.9169 11.7585L4.59374 11.8104L5.33255 11.8607L6.11912 11.9076L6.93835 11.947C7.63026 11.9754 8.34144 11.9939 9.03251 11.9939C9.72358 11.9939 10.4348 11.9754 11.1267 11.947L11.9459 11.9076L12.7325 11.8615L13.4713 11.8113L14.1481 11.7585C14.5038 11.7333 14.8392 11.5829 15.0946 11.334C15.35 11.0852 15.5091 10.7539 15.5437 10.399C15.6417 9.38623 15.7338 8.12555 15.7338 6.9679C15.7338 5.81025 15.6417 4.54957 15.5437 3.53684C15.5091 3.18189 15.35 2.85063 15.0946 2.60178C14.8392 2.35292 14.5038 2.20255 14.1481 2.17731L13.4713 2.12537L12.7325 2.07511L11.9459 2.02821L11.1267 1.98884C10.429 1.95882 9.73081 1.94318 9.03251 1.94193ZM7.35718 4.93657C7.35713 4.8547 7.37708 4.77406 7.41529 4.70165C7.4535 4.62925 7.50883 4.56727 7.57645 4.52112C7.64407 4.47497 7.72194 4.44603 7.80329 4.43683C7.88464 4.42762 7.96701 4.43843 8.04323 4.46832L8.11108 4.50182L11.6293 6.53232C11.6993 6.57274 11.7586 6.62948 11.802 6.6977C11.8455 6.76593 11.8718 6.84364 11.8788 6.92422C11.8858 7.0048 11.8732 7.08588 11.8422 7.16056C11.8111 7.23525 11.7625 7.30134 11.7005 7.35323L11.6293 7.40349L8.11108 9.43482C8.04018 9.47587 7.96032 9.49897 7.87846 9.50211C7.79659 9.50525 7.7152 9.48832 7.64137 9.45281C7.56754 9.4173 7.50351 9.36428 7.45485 9.29836C7.4062 9.23245 7.37439 9.15564 7.36221 9.07462L7.35718 8.99923V4.93657Z" fill="black"/>
</svg>
